<?xml version="1.0" encoding="UTF-8"?>
<svg version="1.1" xmlns="http://www.w3.org/2000/svg" width="2000" height="464">
<path d="M0 0 C608.52 0 1217.04 0 1844 0 C1844 19.47 1844 38.94 1844 59 C1235.48 59 626.96 59 0 59 C0 39.53 0 20.06 0 0 Z " fill="#8A96F6" transform="translate(19,400)"/>
<path d="M0 0 C157.60494652 0 157.60494652 0 184.8125 25.3125 C196.28812154 37.30042608 200.40843353 53.86511059 200.140625 70.08984375 C199.51847024 82.96499096 195.67488481 94.51862773 186.6875 104 C174.08118973 115.44102109 158.32491601 119.15182316 142 122 C141.67 123.65 141.34 125.3 141 127 C142.7325 126.9071875 142.7325 126.9071875 144.5 126.8125 C163.26410406 126.90059439 181.97861336 133.58666332 195.75 146.3125 C207.4343119 158.68412436 210.54543422 174.71588818 210.27734375 191.18359375 C209.67331944 206.18202814 204.0246814 219.68501789 193.66015625 230.5859375 C147.69129069 272.30217673 39.85009742 254 0 254 C0 170.18 0 86.36 0 0 Z M47 40 C47 62.77 47 85.54 47 109 C53.538125 109.020625 60.07625 109.04125 66.8125 109.0625 C68.83221924 109.071604 70.85193848 109.08070801 72.93286133 109.09008789 C81.75249806 109.11349996 90.54976018 109.02064399 99.359375 108.57421875 C100.48403923 108.51887718 100.48403923 108.51887718 101.63142395 108.4624176 C118.28880208 107.51143483 134.22495845 103.77504155 146.3125 91.6875 C151.33843499 83.68323316 151.95976313 75.30646717 151 66 C150.12333325 62.63696765 148.86090897 59.9259575 147 57 C146.61070312 56.37609375 146.22140625 55.7521875 145.8203125 55.109375 C139.04825104 45.89296 126.78027654 42.67425524 116 41 C107.73651974 40.02050657 99.55228169 39.86678152 91.23828125 39.90234375 C90.10918335 39.90335083 88.98008545 39.90435791 87.81677246 39.90539551 C83.64867113 39.91057884 79.48058441 39.92453961 75.3125 39.9375 C65.969375 39.958125 56.62625 39.97875 47 40 Z M47 141 C47 164.76 47 188.52 47 213 C60.49705183 213.08746311 60.49705183 213.08746311 73.99414062 213.14648438 C79.51058769 213.16431917 85.02688337 213.18526488 90.54321289 213.22631836 C94.99770691 213.25925661 99.45203828 213.27692451 103.90664482 213.28463173 C105.59404493 213.29011412 107.28143759 213.30081689 108.96876717 213.31719017 C125.04169133 213.46675046 138.86933534 211.9257469 152.8125 203.25 C159.23215828 196.64692291 161.92703487 188.36620758 162.03125 179.2734375 C161.57133567 171.10995817 159.36033261 162.58699514 153.66015625 156.43359375 C132.68912412 138.32449071 104.23708197 140.59378908 78.375 140.8125 C62.844375 140.9053125 62.844375 140.9053125 47 141 Z " fill="#293FFC" transform="translate(28,10)"/>
<path d="M0 0 C2.48095666 2.27069297 4.86819055 4.62103057 7.25170898 6.99414062 C7.92073242 7.62835938 8.58975586 8.26257813 9.27905273 8.91601562 C19.35616166 19.24448101 24.82599692 34.71306545 25.81811523 48.82617188 C25.90134033 49.98479736 25.98456543 51.14342285 26.0703125 52.3371582 C26.13017334 53.2139624 26.19003418 54.0907666 26.25170898 54.99414062 C22.35976729 56.20285182 18.46775503 57.41133554 14.57568359 58.61962891 C13.25795692 59.02874953 11.94024793 59.4379271 10.62255859 59.84716797 C9.98906494 60.04391113 9.35557129 60.2406543 8.70288086 60.44335938 C8.069216 60.64022339 7.43555115 60.8370874 6.78268433 61.03991699 C5.50216046 61.43712209 4.22133603 61.83335945 2.94021606 62.2286377 C-0.18976012 63.1949277 -3.3132457 64.17664024 -6.43041992 65.18359375 C-7.5730127 65.54904297 -8.71560547 65.91449219 -9.89282227 66.29101562 C-10.90320557 66.6194043 -11.91358887 66.94779297 -12.95458984 67.28613281 C-15.68075036 67.97702379 -17.95085699 68.13367629 -20.74829102 67.99414062 C-20.89524414 66.97835937 -21.04219727 65.96257812 -21.19360352 64.91601562 C-23.3651755 51.11390812 -27.50626483 40.01551966 -38.74829102 30.99414062 C-54.33735338 19.70550926 -73.50177812 17.33019542 -92.18188477 20.27148438 C-103.9201961 22.6500031 -115.543995 26.99588048 -123.74829102 35.99414062 C-124.40829102 35.99414062 -125.06829102 35.99414062 -125.74829102 35.99414062 C-126.01125977 36.56519531 -126.27422852 37.13625 -126.54516602 37.72460938 C-127.82575499 40.14026585 -129.33530568 42.13801785 -130.99829102 44.30664062 C-141.7241818 59.55925871 -145.8448307 80.06052332 -145.95141602 98.45507812 C-145.95996613 99.63923813 -145.95996613 99.63923813 -145.96868896 100.84732056 C-145.97808063 102.51294645 -145.98464954 104.17859042 -145.98852539 105.84423828 C-145.99813249 108.32815334 -146.02917018 110.81120371 -146.06079102 113.29492188 C-146.15626613 127.57838976 -144.80230359 141.8120683 -139.99829102 155.36914062 C-139.74297607 156.10825684 -139.48766113 156.84737305 -139.22460938 157.60888672 C-133.67287116 173.02497889 -124.57885823 184.78435499 -110.00219727 192.43554688 C-92.32210183 200.47195389 -70.20427641 201.99258573 -51.82739258 195.29394531 C-39.4284761 190.18397196 -30.87284542 182.90404334 -24.74829102 170.99414062 C-24.3809082 170.34445313 -24.01352539 169.69476563 -23.63500977 169.02539062 C-19.40163179 160.78746592 -18.70412887 152.28437041 -16.74829102 142.99414062 C-33.57829102 142.99414062 -50.40829102 142.99414062 -67.74829102 142.99414062 C-67.74829102 130.78414062 -67.74829102 118.57414062 -67.74829102 105.99414062 C-34.74829102 105.99414062 -1.74829102 105.99414062 32.25170898 105.99414062 C32.25170898 148.89414063 32.25170898 191.79414063 32.25170898 235.99414062 C20.37170898 235.99414062 8.49170898 235.99414062 -3.74829102 235.99414062 C-3.74829102 215.25271936 -3.74829102 215.25271936 -3.34594727 207.04101562 C-3.30392685 206.12628479 -3.26190643 205.21155396 -3.21861267 204.269104 C-3.13068495 202.37738651 -3.0407408 200.4857616 -2.94873047 198.59423828 C-2.80892814 195.70565003 -2.6776428 192.81675531 -2.54711914 189.92773438 C-2.45972669 188.06963796 -2.37185424 186.21156405 -2.28344727 184.35351562 C-2.24486099 183.50037781 -2.20627472 182.64723999 -2.16651917 181.76824951 C-1.95085871 177.43873751 -1.57262727 173.2611915 -0.74829102 168.99414062 C-2.72829102 168.99414062 -4.70829102 168.99414062 -6.74829102 168.99414062 C-6.82305664 169.53039062 -6.89782227 170.06664062 -6.97485352 170.61914062 C-10.50929422 191.68717933 -21.45995822 214.11154425 -38.74829102 226.99414062 C-58.93054675 241.09811466 -85.27153309 243.33782749 -109.11303711 239.62597656 C-127.82249071 236.29727708 -145.08020167 229.24849375 -159.74829102 216.99414062 C-161.04766602 216.03507812 -161.04766602 216.03507812 -162.37329102 215.05664062 C-185.53441193 194.94303562 -195.87659749 162.56286774 -198.56958008 132.96606445 C-201.03499896 91.96668727 -197.71743958 46.87062567 -169.24829102 14.68164062 C-167.75702323 13.11080434 -166.25723278 11.5480071 -164.74829102 9.99414062 C-164.06379883 9.23617187 -163.37930664 8.47820313 -162.67407227 7.69726562 C-146.04241207 -10.13334974 -120.51272621 -19.36877366 -96.74829102 -22.00585938 C-95.32709961 -22.17214844 -95.32709961 -22.17214844 -93.87719727 -22.34179688 C-62.49574049 -25.49271655 -24.61652012 -21.69925953 0 0 Z " fill="#293FFC" transform="translate(938.748291015625,28.005859375)"/>
<path d="M0 0 C24.65874432 23.45141708 36.14316201 58.2671129 37.31030273 91.70581055 C37.39421563 95.78387533 37.43408334 99.85869894 37.4375 103.9375 C37.43817474 104.66471252 37.43884949 105.39192505 37.43954468 106.14117432 C37.40265955 131.29131376 33.51093664 155.53469823 22.1875 178.1875 C21.89004883 178.78900879 21.59259766 179.39051758 21.28613281 180.01025391 C8.80449515 204.75088379 -12.83076181 221.42225431 -38.8125 230.1875 C-71.61068818 240.82853437 -110.12940972 238.01385409 -140.88500977 222.55200195 C-148.22024643 218.65310856 -154.57534038 213.63766943 -160.8125 208.1875 C-161.94945312 207.20330078 -161.94945312 207.20330078 -163.109375 206.19921875 C-185.15030768 185.61298762 -196.03443617 152.61313657 -197.8125 123.1875 C-199.17064147 80.54079066 -195.69373644 38.1637161 -165.11328125 5.5234375 C-122.53113282 -37.70937194 -45.58327625 -39.48410548 0 0 Z M-126.8125 33.1875 C-146.71235334 56.58490332 -149.211827 89.97905816 -147.1875 119.3125 C-145.5192499 139.94651731 -140.2391544 159.98017753 -126.8125 176.1875 C-126.03326172 177.15429688 -126.03326172 177.15429688 -125.23828125 178.140625 C-115.14169028 189.43253026 -99.08588803 195.04778587 -84.375 196.0625 C-66.26948795 196.90579259 -50.44345479 192.44197689 -36.8125 180.1875 C-27.42427118 170.6821014 -21.81121808 159.28225582 -18 146.625 C-17.8050293 145.97772949 -17.61005859 145.33045898 -17.40917969 144.66357422 C-14.15292922 133.01975089 -13.46360953 121.40080266 -13.49682617 109.38745117 C-13.49997315 107.0201954 -13.47647664 104.65421077 -13.45117188 102.28710938 C-13.39212433 88.27149439 -14.82457318 74.15552777 -19.5625 60.875 C-19.82071533 60.13556152 -20.07893066 59.39612305 -20.3449707 58.63427734 C-26.78844712 40.80713296 -37.06571629 27.21716983 -54.41015625 18.94921875 C-79.22908516 8.40021496 -108.15185396 13.53460691 -126.8125 33.1875 Z " fill="#293FFD" transform="translate(1455.8125,32.8125)"/>
<path d="M0 0 C1.06089844 0.52335937 2.12179687 1.04671875 3.21484375 1.5859375 C11.65476076 6.13306756 18.28996308 12.25438965 25 19 C25.83789062 19.83789062 26.67578125 20.67578125 27.5390625 21.5390625 C54.55703987 50.0425644 59.77368864 91.4323789 59.09326172 128.92333984 C58.1423664 160.2929284 49.56832434 192.43196347 28 216 C27.18015625 216.91265625 26.3603125 217.8253125 25.515625 218.765625 C4.03332736 241.51906451 -25.75293617 249.99945357 -56.328125 250.9609375 C-88.76477727 251.4899183 -118.30999031 242.69948664 -142 220 C-142.63679688 219.41476563 -143.27359375 218.82953125 -143.9296875 218.2265625 C-169.63227349 193.89478109 -175.9919221 155.57296873 -176.95214844 121.92089844 C-177.41103482 93.91009907 -173.02835562 65.54609763 -159 41 C-158.44570313 40.00742187 -157.89140625 39.01484375 -157.3203125 37.9921875 C-152.81994808 30.43415922 -147.06491606 24.30062281 -141 18 C-140.41605469 17.34128906 -139.83210938 16.68257812 -139.23046875 16.00390625 C-106.23712998 -20.16347524 -40.80456587 -20.16739721 0 0 Z M-106.6640625 49.7890625 C-126.12745113 73.41574282 -128.11142821 108.4891176 -125.53564453 137.62304688 C-123.49362687 156.51506146 -117.94202153 176.55461233 -105 191 C-104.40703125 191.67289063 -103.8140625 192.34578125 -103.203125 193.0390625 C-91.52123438 205.51532169 -75.60860626 210.51346218 -58.88671875 211.0703125 C-41.14990688 210.74944555 -25.53747445 205.35919577 -12.97583008 192.57617188 C7.53536252 170.44615542 9.02086212 138.0535967 8.15966797 109.59130859 C7.06055514 84.86967288 -0.28311771 59.20257142 -19 42 C-46.15990432 21.29156856 -83.58825029 24.97985594 -106.6640625 49.7890625 Z " fill="#293FFD" transform="translate(641,18)"/>
<path d="M0 0 C1.55905117 1.50300685 3.10172462 3.0232462 4.625 4.5625 C5.32109375 5.22507812 6.0171875 5.88765625 6.734375 6.5703125 C19.13547441 19.2117433 23.8311114 36.34332999 24.625 53.5625 C13.20022145 56.91836505 1.77445961 60.27295111 -9.6875 63.5 C-10.42661621 63.71100342 -11.16573242 63.92200684 -11.92724609 64.1394043 C-14.84214239 64.95324113 -17.33215303 65.5625 -20.375 65.5625 C-20.57802734 63.96535156 -20.57802734 63.96535156 -20.78515625 62.3359375 C-22.53164408 50.05647826 -25.68176893 37.61523432 -35.3671875 29.015625 C-51.88153152 17.06360948 -72.17700809 14.43393872 -92.02636719 17.43603516 C-98.88794342 18.59771177 -105.31320391 20.03042983 -111.375 23.5625 C-112.15359375 24.0059375 -112.9321875 24.449375 -113.734375 24.90625 C-119.93524625 28.7159356 -123.5158058 32.75557855 -126.6875 39.25 C-128.38661228 47.4366319 -128.3220574 54.92847243 -124.109375 62.3125 C-116.50221268 72.18125112 -102.55766298 76.54395564 -91 79.8125 C-90.00105713 80.10060547 -89.00211426 80.38871094 -87.97290039 80.68554688 C-79.11533438 83.18513892 -70.18221867 85.34249824 -61.23309326 87.48324585 C-22.95322806 96.64371537 -22.95322806 96.64371537 -6 104.5625 C-4.74219727 105.14922485 -4.74219727 105.14922485 -3.45898438 105.74780273 C11.59128563 113.14691146 23.86589167 125.15120838 29.91015625 140.9140625 C36.11706906 160.62490391 34.51365482 180.87691891 25.28125 199.234375 C15.08229416 217.47917377 -3.0189796 228.46426019 -22.625 234.375 C-59.87751837 244.81253264 -108.59478551 245.12420511 -143.33447266 226.20581055 C-162.35993915 215.30714558 -172.73212364 199.71830607 -178.578125 178.921875 C-179.97864669 172.60975632 -180.03837459 166.00438135 -180.375 159.5625 C-174.59241482 157.84835347 -168.8083037 156.13949478 -163.02270508 154.43554688 C-161.05417578 153.85497279 -159.08607356 153.27294855 -157.1184082 152.68945312 C-154.29228605 151.85166143 -151.46467586 151.01907361 -148.63671875 150.1875 C-147.75537766 149.92501465 -146.87403656 149.6625293 -145.96598816 149.39208984 C-145.14536392 149.15184082 -144.32473969 148.9115918 -143.47924805 148.6640625 C-142.75754929 148.45088379 -142.03585052 148.23770508 -141.2922821 148.01806641 C-139.375 147.5625 -139.375 147.5625 -136.375 147.5625 C-136.17197266 149.37621094 -136.17197266 149.37621094 -135.96484375 151.2265625 C-134.33203979 164.19857829 -131.6242694 177.05680789 -121.2890625 186.1171875 C-102.89784776 200.00443128 -78.51417268 202.66685132 -56.16455078 199.73974609 C-43.79742171 197.91868451 -29.92822728 194.39818681 -21.55859375 184.390625 C-16.23837762 176.75002545 -14.13387825 169.72593096 -15.734375 160.48828125 C-17.93521987 152.91915935 -23.89248417 148.63415044 -30.421875 144.75 C-49.09109882 135.2886739 -70.74175625 131.62412161 -90.99267578 126.84619141 C-107.04288212 123.04039323 -122.45696555 118.72018449 -137.375 111.5625 C-138.37273437 111.09070313 -139.37046875 110.61890625 -140.3984375 110.1328125 C-157.48371171 101.46778804 -168.21904136 88.30032139 -174.12109375 70.28515625 C-178.52681403 52.9965022 -175.67868342 32.15520228 -167.375 16.5625 C-154.06099234 -4.34444669 -133.77430521 -15.09571883 -110.13671875 -20.43359375 C-74.65747823 -27.84055972 -28.43482995 -24.95123669 0 0 Z " fill="#293FFC" transform="translate(1710.375,28.4375)"/>
<path d="M0 0 C118.17995868 0 118.17995868 0 134.75 4.1875 C136.04647461 4.50895996 136.04647461 4.50895996 137.36914062 4.83691406 C158.43024385 10.3314528 177.37545397 21.75888186 189.375 40.375 C202.52836613 63.15802885 205.40988407 91.90968602 198.9609375 117.359375 C193.53553631 136.76839764 181.74078883 153.04660418 164.1875 163.1875 C141.65812221 175.73600438 116.52629867 180.21260953 90.9921875 180.09765625 C89.92105713 180.09664917 88.84992676 180.09564209 87.74633789 180.09460449 C83.78921419 180.08941804 79.83210589 180.0754572 75.875 180.0625 C67.00625 180.041875 58.1375 180.02125 49 180 C49 204.42 49 228.84 49 254 C32.83 254 16.66 254 0 254 C0 170.18 0 86.36 0 0 Z M49 39 C49 72.66 49 106.32 49 141 C95.81084153 144.38266835 95.81084153 144.38266835 139 127 C149.12471192 116.67983032 151.91098375 103.10829 152.03515625 89.0078125 C151.6308608 74.50197046 148.02849244 61.46196826 137.3125 51.25 C114.26962739 32.39674059 74.1998683 39 49 39 Z " fill="#293FFD" transform="translate(1022,10)"/>
<path d="M0 0 C65.67 0 131.34 0 199 0 C199 13.86 199 27.72 199 42 C174.25 42 149.5 42 124 42 C124 111.96 124 181.92 124 254 C107.83 254 91.66 254 75 254 C75 184.04 75 114.08 75 42 C50.25 42 25.5 42 0 42 C0 28.14 0 14.28 0 0 Z " fill="#293FFD" transform="translate(1765,10)"/>
<path d="M0 0 C16.17 0 32.34 0 49 0 C49 69.63 49 139.26 49 211 C85.63 211 122.26 211 160 211 C160 225.19 160 239.38 160 254 C107.2 254 54.4 254 0 254 C0 170.18 0 86.36 0 0 Z " fill="#293FFC" transform="translate(286,10)"/>
<path d="M0 0 C28.05 0 56.1 0 85 0 C85 19.47 85 38.94 85 59 C56.95 59 28.9 59 0 59 C0 39.53 0 20.06 0 0 Z " fill="#2841FE" transform="translate(1896,400)"/>
<path d="M0 0 C0.66 0.33 1.32 0.66 2 1 C-3.28 6.28 -8.56 11.56 -14 17 C-14 12.95607032 -12.51908749 11.99868382 -9.8125 9.0625 C-9.03519531 8.20785156 -8.25789063 7.35320313 -7.45703125 6.47265625 C-5.09786332 4.09848566 -2.65532732 2.0327639 0 0 Z " fill="#1D33DD" transform="translate(1562,24)"/>
</svg>
